0
SECTION
2
HEADER
9
$INSUNITS
70
4
9
$ACADVER
1
AC1014
9
$HANDSEED
5
FFFF
0
ENDSEC
0
SECTION
2
TABLES
0
TABLE
2
VPORT
5
8
100
AcDbSymbolTable
0
ENDTAB
0
TABLE
2
LTYPE
5
5
100
AcDbSymbolTable
0
LTYPE
5
14
100
AcDbSymbolTableRecord
100
AcDbLinetypeTableRecord
2
BYBLOCK
70
0
0
LTYPE
5
15
100
AcDbSymbolTableRecord
100
AcDbLinetypeTableRecord
2
BYLAYER
70
0
0
ENDTAB
0
TABLE
2
LAYER
5
2
100
AcDbSymbolTable
70
2
0
LAYER
5
50
100
AcDbSymbolTableRecord
100
AcDbLayerTableRecord
2
0
70
0
6
CONTINUOUS
0
ENDTAB
0
TABLE
2
STYLE
5
3
100
AcDbSymbolTable
70
1
0
STYLE
5
11
100
AcDbSymbolTableRecord
100
AcDbTextStyleTableRecord
2
STANDARD
70
0
0
ENDTAB
0
TABLE
2
VIEW
5
6
100
AcDbSymbolTable
70
0
0
ENDTAB
0
TABLE
2
UCS
5
7
100
AcDbSymbolTable
70
0
0
ENDTAB
0
TABLE
2
APPID
5
9
100
AcDbSymbolTable
70
2
0
APPID
5
12
100
AcDbSymbolTableRecord
100
AcDbRegAppTableRecord
2
ACAD
70
0
0
ENDTAB
0
TABLE
2
DIMSTYLE
5
A
100
AcDbSymbolTable
70
1
0
ENDTAB
0
TABLE
2
BLOCK_RECORD
5
1
100
AcDbSymbolTable
70
1
0
BLOCK_RECORD
5
1F
100
AcDbSymbolTableRecord
100
AcDbBlockTableRecord
2
*MODEL_SPACE
0
BLOCK_RECORD
5
1B
100
AcDbSymbolTableRecord
100
AcDbBlockTableRecord
2
*PAPER_SPACE
0
ENDTAB
0
ENDSEC
0
SECTION
2
BLOCKS
0
BLOCK
5
20
100
AcDbEntity
100
AcDbBlockBegin
2
*MODEL_SPACE
0
ENDBLK
5
21
100
AcDbEntity
100
AcDbBlockEnd
0
BLOCK
5
1C
100
AcDbEntity
100
AcDbBlockBegin
2
*PAPER_SPACE
0
ENDBLK
5
1D
100
AcDbEntity
100
AcDbBlockEnd
0
ENDSEC
0
SECTION
2
ENTITIES
0
CIRCLE
5
100
100
AcDbEntity
8
0
100
AcDbCircle
10
-9.3860680422771399
20
59.261301318770457
30
0
40
1.6000000000000003
210
0
220
-0
230
1
0
CIRCLE
5
101
100
AcDbEntity
8
0
100
AcDbCircle
10
53.460392247923991
20
27.239430390271934
30
0
40
1.6000000000000003
210
0
220
-0
230
1
0
CIRCLE
5
102
100
AcDbEntity
8
0
100
AcDbCircle
10
42.426407503395552
20
-42.426407503395581
30
0
40
1.6000000000000003
210
0
220
-0
230
1
0
CIRCLE
5
103
100
AcDbEntity
8
0
100
AcDbCircle
10
-27.239430390271949
20
-53.460392247923984
30
0
40
1.6000000000000003
210
0
220
-0
230
1
0
CIRCLE
5
104
100
AcDbEntity
8
0
100
AcDbCircle
10
-59.26130131877045
20
9.3860680422771665
30
0
40
1.6000000000000003
210
0
220
-0
230
1
0
CIRCLE
5
105
100
AcDbEntity
8
0
100
AcDbCircle
10
9.3860680422771807
20
59.26130131877045
30
0
40
1.6000000000000003
210
0
220
-0
230
1
0
CIRCLE
5
106
100
AcDbEntity
8
0
100
AcDbCircle
10
59.261301318770457
20
9.3860680422771523
30
0
40
1.6000000000000003
210
0
220
-0
230
1
0
CIRCLE
5
107
100
AcDbEntity
8
0
100
AcDbCircle
10
27.239430390271927
20
-53.460392247923977
30
0
40
1.6000000000000003
210
0
220
-0
230
1
0
CIRCLE
5
108
100
AcDbEntity
8
0
100
AcDbCircle
10
-42.426407503395581
20
-42.426407503395573
30
0
40
1.6000000000000003
210
0
220
-0
230
1
0
CIRCLE
5
109
100
AcDbEntity
8
0
100
AcDbCircle
10
-53.460392247923977
20
27.239430390271959
30
0
40
1.6000000000000003
210
0
220
-0
230
1
0
CIRCLE
5
110
100
AcDbEntity
8
0
100
AcDbCircle
10
-59.26130131877045
20
-9.3860680422771594
30
0
40
1.6000000000000003
210
0
220
-0
230
1
0
CIRCLE
5
111
100
AcDbEntity
8
0
100
AcDbCircle
10
-9.3860680422771559
20
-59.261301318770457
30
0
40
1.6000000000000003
210
0
220
-0
230
1
0
CIRCLE
5
112
100
AcDbEntity
8
0
100
AcDbCircle
10
53.460392247923984
20
-27.239430390271956
30
0
40
1.6000000000000003
210
0
220
-0
230
1
0
CIRCLE
5
113
100
AcDbEntity
8
0
100
AcDbCircle
10
42.426407503395595
20
42.426407503395566
30
0
40
1.6000000000000003
210
0
220
-0
230
1
0
CIRCLE
5
114
100
AcDbEntity
8
0
100
AcDbCircle
10
-27.239430390271934
20
53.460392247923984
30
0
40
1.6000000000000003
210
0
220
-0
230
1
0
CIRCLE
5
115
100
AcDbEntity
8
0
100
AcDbCircle
10
-53.460392247923984
20
-27.239430390271934
30
0
40
1.6000000000000003
210
0
220
-0
230
1
0
CIRCLE
5
116
100
AcDbEntity
8
0
100
AcDbCircle
10
9.3860680422771576
20
-59.261301318770457
30
0
40
1.6000000000000003
210
0
220
-0
230
1
0
CIRCLE
5
117
100
AcDbEntity
8
0
100
AcDbCircle
10
59.26130131877045
20
-9.3860680422771754
30
0
40
1.6000000000000003
210
0
220
-0
230
1
0
CIRCLE
5
118
100
AcDbEntity
8
0
100
AcDbCircle
10
27.239430390271945
20
53.460392247923963
30
0
40
1.6000000000000003
210
0
220
-0
230
1
0
CIRCLE
5
119
100
AcDbEntity
8
0
100
AcDbCircle
10
-42.426407503395566
20
42.426407503395581
30
0
40
1.6000000000000003
210
0
220
-0
230
1
0
CIRCLE
5
120
100
AcDbEntity
8
0
100
AcDbCircle
10
30
20
-30
30
0
40
1.6000000000000003
210
0
220
-0
230
1
0
CIRCLE
5
121
100
AcDbEntity
8
0
100
AcDbCircle
10
30
20
30
30
0
40
1.6000000000000003
210
0
220
-0
230
1
0
CIRCLE
5
122
100
AcDbEntity
8
0
100
AcDbCircle
10
-30
20
-30
30
0
40
1.6000000000000003
210
0
220
-0
230
1
0
CIRCLE
5
123
100
AcDbEntity
8
0
100
AcDbCircle
10
4.4380124221144912e-15
20
30
30
0
40
1.6000000000000003
210
0
220
-0
230
1
0
CIRCLE
5
124
100
AcDbEntity
8
0
100
AcDbCircle
10
0
20
-30
30
0
40
1.6000000000000003
210
0
220
-0
230
1
0
CIRCLE
5
125
100
AcDbEntity
8
0
100
AcDbCircle
10
-30
20
30
30
0
40
1.6000000000000003
210
0
220
-0
230
1
0
CIRCLE
5
126
100
AcDbEntity
8
0
100
AcDbCircle
10
30
20
0
30
0
40
1.6000000000000003
210
0
220
-0
230
1
0
CIRCLE
5
127
100
AcDbEntity
8
0
100
AcDbCircle
10
-30
20
0
30
0
40
1.6000000000000003
210
0
220
-0
230
1
0
CIRCLE
5
128
100
AcDbEntity
8
0
100
AcDbCircle
10
-42.5
20
4.8638927270698769e-15
30
0
40
1.6000000000000003
210
0
220
-0
230
1
0
CIRCLE
5
129
100
AcDbEntity
8
0
100
AcDbCircle
10
21.249999999999968
20
-36.806079660838662
30
0
40
1.6000000000000003
210
0
220
-0
230
1
0
CIRCLE
5
130
100
AcDbEntity
8
0
100
AcDbCircle
10
42.5
20
2.6512357124512203e-16
30
0
40
1.6000000000000003
210
0
220
-0
230
1
0
CIRCLE
5
131
100
AcDbEntity
8
0
100
AcDbCircle
10
21.250000000000007
20
36.806079660838634
30
0
40
1.6000000000000003
210
0
220
-0
230
1
0
CIRCLE
5
132
100
AcDbEntity
8
0
100
AcDbCircle
10
-21.250000000000021
20
-36.806079660838634
30
0
40
1.6000000000000003
210
0
220
-0
230
1
0
CIRCLE
5
133
100
AcDbEntity
8
0
100
AcDbCircle
10
-21.249999999999993
20
36.806079660838648
30
0
40
1.6000000000000003
210
0
220
-0
230
1
0
CIRCLE
5
134
100
AcDbEntity
8
0
100
AcDbCircle
10
-7.8036128806451348
20
39.231411216129217
30
0
40
3.7999999999999998
210
0
220
-0
230
1
0
CIRCLE
5
135
100
AcDbEntity
8
0
100
AcDbCircle
10
-33.258784492101803
20
-22.222809320784091
30
0
40
3.7999999999999998
210
0
220
-0
230
1
0
CIRCLE
5
136
100
AcDbEntity
8
0
100
AcDbCircle
10
-7.8036128806451206
20
-39.231411216129224
30
0
40
3.7999999999999998
210
0
220
-0
230
1
0
CIRCLE
5
137
100
AcDbEntity
8
0
100
AcDbCircle
10
33.258784492101803
20
22.222809320784087
30
0
40
3.7999999999999998
210
0
220
-0
230
1
0
CIRCLE
5
138
100
AcDbEntity
8
0
100
AcDbCircle
10
-10.523794390039964
20
-25.406687144060392
30
0
40
3.7999999999999998
210
0
220
-0
230
1
0
CIRCLE
5
139
100
AcDbEntity
8
0
100
AcDbCircle
10
25.406687144060385
20
10.523794390039967
30
0
40
3.7999999999999998
210
0
220
-0
230
1
0
CIRCLE
5
140
100
AcDbEntity
8
0
100
AcDbCircle
10
-13.258252147247765
20
-13.25825214724777
30
0
40
3.7999999999999998
210
0
220
-0
230
1
0
CIRCLE
5
141
100
AcDbEntity
8
0
100
AcDbCircle
10
-25.406687144060385
20
10.523794390039969
30
0
40
3.7999999999999998
210
0
220
-0
230
1
0
CIRCLE
5
142
100
AcDbEntity
8
0
100
AcDbCircle
10
-1.543215515873346e-15
20
-10
30
0
40
3.7999999999999998
210
0
220
-0
230
1
0
CIRCLE
5
143
100
AcDbEntity
8
0
100
AcDbCircle
10
49.930467105495566
20
16.223392204684735
30
0
40
3.7999999999999998
210
0
220
-0
230
1
0
CIRCLE
5
144
100
AcDbEntity
8
0
100
AcDbCircle
10
49.930467105495559
20
-16.223392204684743
30
0
40
3.7999999999999998
210
0
220
-0
230
1
0
CIRCLE
5
145
100
AcDbEntity
8
0
100
AcDbCircle
10
30.858725745354832
20
-42.473392204684743
30
0
40
3.7999999999999998
210
0
220
-0
230
1
0
CIRCLE
5
146
100
AcDbEntity
8
0
100
AcDbCircle
10
-2.1514036096768612e-15
20
-52.5
30
0
40
3.7999999999999998
210
0
220
-0
230
1
0
CIRCLE
5
147
100
AcDbEntity
8
0
100
AcDbCircle
10
-30.858725745354839
20
-42.47339220468475
30
0
40
3.7999999999999998
210
0
220
-0
230
1
0
CIRCLE
5
148
100
AcDbEntity
8
0
100
AcDbCircle
10
-49.930467105495559
20
-16.223392204684739
30
0
40
3.7999999999999998
210
0
220
-0
230
1
0
CIRCLE
5
149
100
AcDbEntity
8
0
100
AcDbCircle
10
-49.930467105495559
20
16.223392204684753
30
0
40
3.7999999999999998
210
0
220
-0
230
1
0
CIRCLE
5
150
100
AcDbEntity
8
0
100
AcDbCircle
10
-30.858725745354828
20
42.473392204684743
30
0
40
3.7999999999999998
210
0
220
-0
230
1
0
CIRCLE
5
151
100
AcDbEntity
8
0
100
AcDbCircle
10
7.9741052600621786e-15
20
52.5
30
0
40
3.7999999999999998
210
0
220
-0
230
1
0
CIRCLE
5
152
100
AcDbEntity
8
0
100
AcDbCircle
10
30.858725745354846
20
42.473392204684743
30
0
40
3.7999999999999998
210
0
220
-0
230
1
0
CIRCLE
5
153
100
AcDbEntity
8
0
100
AcDbCircle
10
42.473392204684743
20
30.858725745354832
30
0
40
3.7999999999999998
210
0
220
-0
230
1
0
CIRCLE
5
154
100
AcDbEntity
8
0
100
AcDbCircle
10
16.223392204684743
20
49.930467105495559
30
0
40
3.7999999999999998
210
0
220
-0
230
1
0
CIRCLE
5
155
100
AcDbEntity
8
0
100
AcDbCircle
10
-16.223392204684732
20
49.930467105495566
30
0
40
3.7999999999999998
210
0
220
-0
230
1
0
CIRCLE
5
156
100
AcDbEntity
8
0
100
AcDbCircle
10
-42.473392204684743
20
30.858725745354853
30
0
40
3.7999999999999998
210
0
220
-0
230
1
0
CIRCLE
5
157
100
AcDbEntity
8
0
100
AcDbCircle
10
-52.5
20
-1.5665834627187291e-15
30
0
40
3.7999999999999998
210
0
220
-0
230
1
0
CIRCLE
5
158
100
AcDbEntity
8
0
100
AcDbCircle
10
-42.473392204684743
20
-30.858725745354842
30
0
40
3.7999999999999998
210
0
220
-0
230
1
0
CIRCLE
5
159
100
AcDbEntity
8
0
100
AcDbCircle
10
-16.223392204684739
20
-49.930467105495559
30
0
40
3.7999999999999998
210
0
220
-0
230
1
0
CIRCLE
5
160
100
AcDbEntity
8
0
100
AcDbCircle
10
16.223392204684735
20
-49.930467105495566
30
0
40
3.7999999999999998
210
0
220
-0
230
1
0
CIRCLE
5
161
100
AcDbEntity
8
0
100
AcDbCircle
10
42.473392204684743
20
-30.858725745354846
30
0
40
3.7999999999999998
210
0
220
-0
230
1
0
CIRCLE
5
162
100
AcDbEntity
8
0
100
AcDbCircle
10
52.5
20
-5.335973382335866e-15
30
0
40
3.7999999999999998
210
0
220
-0
230
1
0
CIRCLE
5
163
100
AcDbEntity
8
0
100
AcDbCircle
10
3.1984989210704073e-15
20
10
30
0
40
3.7999999999999998
210
0
220
-0
230
1
0
CIRCLE
5
164
100
AcDbEntity
8
0
100
AcDbCircle
10
-10
20
5.8268434242157642e-16
30
0
40
3.7999999999999998
210
0
220
-0
230
1
0
CIRCLE
5
165
100
AcDbEntity
8
0
100
AcDbCircle
10
-13.258252147247767
20
13.258252147247765
30
0
40
3.7999999999999998
210
0
220
-0
230
1
0
CIRCLE
5
166
100
AcDbEntity
8
0
100
AcDbCircle
10
25.406687144060385
20
-10.523794390039971
30
0
40
3.7999999999999998
210
0
220
-0
230
1
0
CIRCLE
5
167
100
AcDbEntity
8
0
100
AcDbCircle
10
-10.523794390039962
20
25.406687144060388
30
0
40
3.7999999999999998
210
0
220
-0
230
1
0
CIRCLE
5
168
100
AcDbEntity
8
0
100
AcDbCircle
10
-25.406687144060385
20
-10.523794390039969
30
0
40
3.7999999999999998
210
0
220
-0
230
1
0
CIRCLE
5
169
100
AcDbEntity
8
0
100
AcDbCircle
10
33.258784492101803
20
-22.222809320784091
30
0
40
3.7999999999999998
210
0
220
-0
230
1
0
CIRCLE
5
170
100
AcDbEntity
8
0
100
AcDbCircle
10
7.8036128806451348
20
-39.231411216129217
30
0
40
3.7999999999999998
210
0
220
-0
230
1
0
CIRCLE
5
171
100
AcDbEntity
8
0
100
AcDbCircle
10
-33.258784492101796
20
22.222809320784108
30
0
40
3.7999999999999998
210
0
220
-0
230
1
0
CIRCLE
5
172
100
AcDbEntity
8
0
100
AcDbCircle
10
7.8036128806451366
20
39.231411216129217
30
0
40
3.7999999999999998
210
0
220
-0
230
1
0
CIRCLE
5
173
100
AcDbEntity
8
0
100
AcDbCircle
10
-39.999999999999943
20
69.282032302755127
30
0
40
2.75
210
0
220
-0
230
1
0
CIRCLE
5
174
100
AcDbEntity
8
0
100
AcDbCircle
10
-80
20
0
30
0
40
2.75
210
0
220
-0
230
1
0
CIRCLE
5
175
100
AcDbEntity
8
0
100
AcDbCircle
10
-40.000000000000007
20
-69.282032302755084
30
0
40
2.75
210
0
220
-0
230
1
0
CIRCLE
5
176
100
AcDbEntity
8
0
100
AcDbCircle
10
39.999999999999986
20
-69.282032302755113
30
0
40
2.75
210
0
220
-0
230
1
0
CIRCLE
5
177
100
AcDbEntity
8
0
100
AcDbCircle
10
80
20
-9.7971743931788261e-15
30
0
40
2.75
210
0
220
-0
230
1
0
CIRCLE
5
178
100
AcDbEntity
8
0
100
AcDbCircle
10
40.000000000000014
20
69.28203230275507
30
0
40
2.75
210
0
220
-0
230
1
0
CIRCLE
5
179
100
AcDbEntity
8
0
100
AcDbCircle
10
69.282032302755113
20
39.999999999999986
30
0
40
2.75
210
0
220
-0
230
1
0
CIRCLE
5
180
100
AcDbEntity
8
0
100
AcDbCircle
10
69.28203230275507
20
-40.000000000000028
30
0
40
2.75
210
0
220
-0
230
1
0
CIRCLE
5
181
100
AcDbEntity
8
0
100
AcDbCircle
10
1.7763568394002505e-14
20
-80.000000000000014
30
0
40
2.75
210
0
220
-0
230
1
0
CIRCLE
5
182
100
AcDbEntity
8
0
100
AcDbCircle
10
-69.282032302755098
20
-39.999999999999993
30
0
40
2.75
210
0
220
-0
230
1
0
CIRCLE
5
183
100
AcDbEntity
8
0
100
AcDbCircle
10
-69.28203230275507
20
40.000000000000036
30
0
40
2.75
210
0
220
-0
230
1
0
CIRCLE
5
184
100
AcDbEntity
8
0
100
AcDbCircle
10
1.7763568394002505e-14
20
80
30
0
40
2.75
210
0
220
-0
230
1
0
CIRCLE
5
185
100
AcDbEntity
8
0
100
AcDbCircle
10
0
20
0
30
0
40
85
210
0
220
0
230
1
0
ENDSEC
0
SECTION
2
OBJECTS
0
DICTIONARY
5
C
100
AcDbDictionary
3
ACAD_GROUP
350
D
3
ACAD_MLINESTYLE
350
17
0
DICTIONARY
5
D
100
AcDbDictionary
0
DICTIONARY
5
1A
330
C
100
AcDbDictionary
0
DICTIONARY
5
17
100
AcDbDictionary
0
ENDSEC
0
EOF
